# xmcd
#
# Track frame offsets:
#	150
#	13490
#	25245
#	40200
#	59982
#	74470
#	98182
#	115382
#	129275
#	141380
#	157337
#	172192
#	189237
#	201832
#	214970
#	232667
#	245800
#	257287
#	271445
#	288487
#	301520
#	319540
#	331567
#
# Disc length: 4547 seconds
#
# Revision: 0
# Processed by: cddbd v1.4PL0 Copyright (c) Steve Scherf et al.
# Submitted via: MusicWizard 6.0.2
#
DISCID=5b11c117
DTITLE=Various Artist - I Love Country [CD 2/3)
DYEAR=1995
DGENRE=Country-Music
TTITLE0=John Brack - Sweet Talking Memory
TTITLE1=Britta T. - I Was Just Teasing You
TTITLE2=McGill - Let's Waltz Again
TTITLE3=Jeff Turner - Tie Me Kangaroo Down Sport
TTITLE4=The Jackys - Once In A While
TTITLE5=Jan Hiermeyer - El Paso
TTITLE6=John Brack - Hold On To Me
TTITLE7=George Hug - Flowers
TTITLE8=Suzanne Klee - Yellow Rose Of Texas
TTITLE9=Appalachian Barn Orchestra - Who's Gonna Shoe Your Pretty Little Foot
TTITLE10=Rolf Raggenbass - Roll On
TTITLE11=John Brack - I'd Like To Know
TTITLE12=Jeff Turner - A Picture Of My Darling
TTITLE13=Buddy and The Ghostriders - I Can Take It
TTITLE14=Rolf Raggenbass - Do You Remember
TTITLE15=Appalachian Barn Orchestra - Twenty Cows Fifty Pigs And 500 Chicken
TTITLE16=John Brack - I Joined The Party Of The Lord
TTITLE17=McGill - On The Road To Melbourne
TTITLE18=Britta T. - If You Ever Feel Like Fallin'
TTITLE19=The Jackys - Jacky's Country Train
TTITLE20=Rodeo Ranchers - The Other Side
TTITLE21=Jan Hiermeyer - There Goes A Fool
TTITLE22=Suzanne Klee - The More I See Of These Cowboys
EXTD=
EXTT0=
EXTT1=
EXTT2=
EXTT3=
EXTT4=
EXTT5=
EXTT6=
EXTT7=
EXTT8=
EXTT9=
EXTT10=
EXTT11=
EXTT12=
EXTT13=
EXTT14=
EXTT15=
EXTT16=
EXTT17=
EXTT18=
EXTT19=
EXTT20=
EXTT21=
EXTT22=
PLAYORDER=
